<?xml version="1.0" encoding="utf-8"?>
<!-- Generator: Adobe Illustrator 26.4.1, SVG Export Plug-In . SVG Version: 6.00 Build 0)  -->
<svg version="1.1" id="Camada_1" xmlns="http://www.w3.org/2000/svg" xmlns:xlink="http://www.w3.org/1999/xlink" x="0px" y="0px"
	 viewBox="0 0 562.3 481.3" style="enable-background:new 0 0 562.3 481.3;" xml:space="preserve">
<style type="text/css">
	.st0{fill:url(#SVGID_1_);}
	.st1{fill:url(#SVGID_00000013897636737670865260000014752325195090418059_);}
	.st2{fill:url(#SVGID_00000168102124874880410460000018242462571070913444_);}
	.st3{fill:url(#SVGID_00000051385918512255897270000007098244259957256862_);}
	.st4{fill:url(#SVGID_00000180328900010747413330000002276138405153266613_);}
	.st5{fill:url(#SVGID_00000183244950769849942620000009735967077936072325_);}
</style>
<g>
	<g>
		<linearGradient id="SVGID_1_" gradientUnits="userSpaceOnUse" x1="132.9822" y1="240.6522" x2="429.3222" y2="240.6522">
			<stop  offset="0" style="stop-color:#D4DC59"/>
			<stop  offset="1" style="stop-color:#A5CF96"/>
		</linearGradient>
		<path class="st0" d="M409.37,249.36c-7.48-7.48-16.49-13.01-26.25-16.32v-96.22c0-11.71-9.53-21.24-21.24-21.24H154.22
			c-11.71,0-21.24,9.53-21.24,21.24v207.66c0,11.71,9.53,21.24,21.24,21.24h207.66c0.88,0,1.74-0.05,2.59-0.16
			c13.7-0.66,27.06-5.45,38.2-14c16.8-12.89,26.65-32.86,26.65-54.04C429.31,279.46,422.13,262.14,409.37,249.36z M242.31,129.07
			h31.49v59.63h-31.49V129.07z M154.22,352.22c-4.27,0-7.74-3.47-7.74-7.74V136.82c0-4.27,3.47-7.75,7.74-7.75h74.59v61.7
			c0,6.3,5.13,11.42,11.43,11.42h35.63c6.3,0,11.42-5.12,11.42-11.42v-61.7h74.59c4.27,0,7.75,3.48,7.75,7.75v93.11
			c-5.69-0.71-11.51-0.7-17.32,0.06c-20.99,2.77-39.51,15.14-50.1,33.48c-10.58,18.34-12.04,40.56-3.93,60.12
			c4.77,11.54,12.55,21.37,22.33,28.63H154.22z M400.61,336.94c-5.21,5.21-11.33,9.27-17.97,12.03c-8.95,3.74-18.84,5.11-28.71,3.81
			c-1.16-0.15-2.3-0.34-3.44-0.56c-15.75-3.08-29.47-12.83-37.55-26.83c-8.67-15-9.86-33.18-3.23-49.19
			c6.63-16.01,20.33-28.02,37.07-32.51c7.54-2.02,15.32-2.41,22.85-1.25c4.63,0.7,9.16,1.99,13.49,3.85
			c4.24,1.81,8.28,4.16,12.01,7.02c13.75,10.55,21.81,26.89,21.81,44.22C416.93,312.3,411.06,326.48,400.61,336.94z"/>
		
			<linearGradient id="SVGID_00000058570697314819708950000007077805499698782096_" gradientUnits="userSpaceOnUse" x1="157.2851" y1="329.8949" x2="225.5216" y2="329.8949">
			<stop  offset="0" style="stop-color:#D4DC59"/>
			<stop  offset="1" style="stop-color:#A5CF96"/>
		</linearGradient>
		<path style="fill:url(#SVGID_00000058570697314819708950000007077805499698782096_);" d="M218.52,336.9h-54.24c-3.86,0-7-3.14-7-7
			c0-3.86,3.14-7,7-7h54.24c3.86,0,7,3.14,7,7C225.52,333.76,222.38,336.9,218.52,336.9z"/>
		
			<linearGradient id="SVGID_00000119813644210785570840000009671618728175590542_" gradientUnits="userSpaceOnUse" x1="157.2851" y1="311.6206" x2="225.5216" y2="311.6206">
			<stop  offset="0" style="stop-color:#D4DC59"/>
			<stop  offset="1" style="stop-color:#A5CF96"/>
		</linearGradient>
		<path style="fill:url(#SVGID_00000119813644210785570840000009671618728175590542_);" d="M218.52,318.62h-54.24
			c-3.86,0-7-3.14-7-7s3.14-7,7-7h54.24c3.86,0,7,3.14,7,7S222.38,318.62,218.52,318.62z"/>
	</g>
	<g>
		<g>
			
				<linearGradient id="SVGID_00000040537376434440222650000013299654710077323415_" gradientUnits="userSpaceOnUse" x1="351.7221" y1="324.4722" x2="366.4522" y2="324.4722">
				<stop  offset="0" style="stop-color:#D4DC59"/>
				<stop  offset="1" style="stop-color:#A5CF96"/>
			</linearGradient>
			<path style="fill:url(#SVGID_00000040537376434440222650000013299654710077323415_);" d="M364.28,319.28
				c-1.45-1.45-3.21-2.18-5.29-2.18c-2.02,0-3.72,0.73-5.1,2.18c-1.45,1.45-2.17,3.21-2.17,5.29c0,2.01,0.7,3.73,2.12,5.15
				c1.42,1.41,3.13,2.12,5.15,2.12c2.08,0,3.84-0.71,5.29-2.12c1.45-1.42,2.17-3.14,2.17-5.15
				C366.45,322.49,365.73,320.73,364.28,319.28z"/>
		</g>
		
			<linearGradient id="SVGID_00000066513252617496294890000016330558997691167634_" gradientUnits="userSpaceOnUse" x1="312.9448" y1="297.5248" x2="409.4721" y2="297.5248">
			<stop  offset="0" style="stop-color:#D4DC59"/>
			<stop  offset="1" style="stop-color:#A5CF96"/>
		</linearGradient>
		<path style="fill:url(#SVGID_00000066513252617496294890000016330558997691167634_);" d="M395.33,263.4
			c-3.62-3.62-7.75-6.6-12.21-8.87c-4.25-2.17-8.79-3.69-13.49-4.52c-4.81-0.86-9.77-0.99-14.73-0.34
			c-14.87,1.96-27.99,10.73-35.49,23.72c-7.5,13-8.54,28.74-2.79,42.61c5.74,13.86,17.6,24.26,32.1,28.14
			c6.9,1.85,14.03,2.12,20.89,0.91c4.68-0.83,9.24-2.35,13.51-4.53c2.61-1.32,5.11-2.9,7.47-4.71c11.9-9.13,18.88-23.28,18.88-38.29
			C409.46,284.73,404.38,272.45,395.33,263.4z M389.13,325.45c-1.85,1.85-3.87,3.5-6.01,4.93c-4.12,2.74-8.69,4.68-13.49,5.73
			c-4.41,0.96-9,1.17-13.58,0.57c-12.17-1.6-22.91-8.78-29.04-19.41c-6.14-10.63-6.99-23.51-2.29-34.86
			c4.7-11.34,14.4-19.85,26.26-23.03c6.18-1.66,12.57-1.77,18.65-0.43c4.77,1.04,9.35,2.97,13.49,5.74
			c0.72,0.47,1.43,0.98,2.12,1.51c9.74,7.47,15.45,19.05,15.45,31.33C400.69,308,396.53,318.04,389.13,325.45z"/>
		
			<linearGradient id="SVGID_00000053535518619529024140000001023024335261976960_" gradientUnits="userSpaceOnUse" x1="338.7722" y1="291.3172" x2="381.8521" y2="291.3172">
			<stop  offset="0" style="stop-color:#D4DC59"/>
			<stop  offset="1" style="stop-color:#A5CF96"/>
		</linearGradient>
		<path style="fill:url(#SVGID_00000053535518619529024140000001023024335261976960_);" d="M381.85,286.5v0.75
			c-0.06,2.65-0.69,4.9-1.89,6.76c-1.19,1.85-2.63,3.35-4.3,4.48c-1.67,1.14-3.32,2.26-4.96,3.36c-0.37,0.25-0.72,0.51-1.07,0.8
			c-1.2,0.98-2.27,2.2-3.22,3.64c-1.23,1.86-1.88,4.08-1.94,6.66H353.6v-0.57c0-3.08,0.48-5.78,1.42-8.08
			c0.95-2.29,2.14-4.09,3.59-5.38c1.45-1.29,2.91-2.44,4.39-3.45c1.48-1.01,2.79-2.19,3.93-3.54c1.13-1.36,1.79-2.91,1.98-4.68
			c0.06-0.31,0.09-0.6,0.09-0.85c0-1.83-0.74-3.32-2.22-4.49c-1.48-1.16-3.51-1.74-6.09-1.74h-0.38c-1.76,0.06-3.27,0.39-4.53,0.99
			c-1.26,0.6-2.16,1.32-2.7,2.17c-0.53,0.85-0.96,1.7-1.27,2.55c-0.32,0.85-0.47,1.56-0.47,2.13v0.85h-12.57
			c0-0.25,0.02-0.62,0.05-1.09c0.03-0.47,0.17-1.37,0.43-2.69c0.25-1.32,0.61-2.58,1.08-3.78c0.47-1.2,1.24-2.54,2.32-4.02
			c1.07-1.47,2.33-2.75,3.77-3.82c1.45-1.07,3.37-1.97,5.77-2.69c2.39-0.73,5.1-1.09,8.12-1.09c3.53,0,6.63,0.4,9.32,1.19
			c2.64,0.78,4.87,1.94,6.7,3.49C380.01,277.47,381.85,281.52,381.85,286.5z"/>
	</g>
</g>
</svg>
