<svg xmlns="http://www.w3.org/2000/svg" viewBox="0.5 0.5 340 333" style="height:300px">
    <defs
    id="defs4676">
   <linearGradient
      inkscape:collect="always"
      id="linearGradientFusion">
     <stop
        style="stop-color:#acdd97;stop-opacity:1"
        offset="0"
        id="stop833" />
     <stop
        style="stop-color:#c1dc79;stop-opacity:1"
        offset="1"
        id="stop835" />
   </linearGradient>
   <linearGradient
      inkscape:collect="always"
      xlink:href="#linearGradientFusion"
      id="linearGradientFusionUse"
      x1="33.82143"
      y1="263.96011"
      x2="183.06548"
      y2="104.45415"
      gradientUnits="userSpaceOnUse" />
    </defs>

    <defs
    id="defs4676">
   <linearGradient
      inkscape:collect="always"
      id="linearGradientInverseFusion">
     <stop
        style="stop-color:#c1dc79;stop-opacity:1"
        offset="0"
        id="stop833" />
     <stop
        style="stop-color:#acdd97;stop-opacity:1"
        offset="1"
        id="stop835" />
   </linearGradient>
   <linearGradient
      inkscape:collect="always"
      xlink:href="#linearGradientInverseFusion"
      id="linearGradientFusionUseInverse"
      x1="33.82143"
      y1="263.96011"
      x2="183.06548"
      y2="104.45415"
      gradientUnits="userSpaceOnUse" />
    </defs>

    <path fill="white" style="stroke:url(#linearGradientFusionUseInverse);stroke-linecap:round;" stroke-width="16"
    d="m 68.453766,167.3519 c 2.98972,1.66676 6.37378,2.53896 9.67767,3.43401 20.49168,5.55135 47.487934,0.44432 62.748834,3.12181 9.99033,1.75273 10.74993,14.48204 5.30707,21.22849 -7.94742,9.85087 -19.02335,7.91042 -29.34519,7.80455 -10.51277,-0.10788 -20.161264,0.90653 -28.720834,5.93147 -7.17475,4.21193 -11.60869,10.43589 -14.67262,17.48224 -6.11276,14.05809 -0.0901,35.8533 -25.28683,30.28177 -20.525,-4.53851 3.0328,-72.3559 15.60915,-88.03565 3.45326,-4.30537 7.3942,-8.31172 11.86295,-11.55076 24.840974,-18.00533 44.340984,-13.77243 82.728524,-14.04822 19.32186,-5.17762 24.73375,-30.78689 6.55583,-33.40359 -10.61665,-1.4217 -23.6226,-0.96228 -34.65233,-0.62439 -16.68987,0.51128 -35.936424,-0.63 -49.637094,6.86806 -13.70066,7.49806 -29.23557,23.46842 -23.38548,39.48121 1.69526,4.01289 4.06382,6.96337 7.19918,9.40123"
    />

    <path class="path" fill="white" style="stroke:url(#linearGradientFusionUse);stroke-linecap:round;" stroke-width="8"
    d="m 68.453766,167.3519 c 2.98972,1.66676 6.37378,2.53896 9.67767,3.43401 20.49168,5.55135 47.487934,0.44432 62.748834,3.12181 9.99033,1.75273 10.74993,14.48204 5.30707,21.22849 -7.94742,9.85087 -19.02335,7.91042 -29.34519,7.80455 -10.51277,-0.10788 -20.161264,0.90653 -28.720834,5.93147 -7.17475,4.21193 -11.60869,10.43589 -14.67262,17.48224 -6.11276,14.05809 -0.0901,35.8533 -25.28683,30.28177 -20.525,-4.53851 3.0328,-72.3559 15.60915,-88.03565 3.45326,-4.30537 7.3942,-8.31172 11.86295,-11.55076 24.840974,-18.00533 44.340984,-13.77243 82.728524,-14.04822 19.32186,-5.17762 24.73375,-30.78689 6.55583,-33.40359 -10.61665,-1.4217 -23.6226,-0.96228 -34.65233,-0.62439 -16.68987,0.51128 -35.936424,-0.63 -49.637094,6.86806 -13.70066,7.49806 -29.23557,23.46842 -23.38548,39.48121 1.69526,4.01289 4.06382,6.96337 7.19918,9.40123"
    />

</svg>
